<svg width="24" height="28" viewBox="0 0 24 28" fill="none" xmlns="http://www.w3.org/2000/svg">
<path fill-rule="evenodd" clip-rule="evenodd" d="M7.75 11.75H5C3.895 11.75 3 10.855 3 9.75V7C3 5.895 3.895 5 5 5H7.75C8.855 5 9.75 5.895 9.75 7V9.75C9.75 10.855 8.855 11.75 7.75 11.75Z" stroke="#0047BB" stroke-width="1.5" stroke-linecap="round" stroke-linejoin="round"/>
<path opacity="0.6" fill-rule="evenodd" clip-rule="evenodd" d="M19 11.75H16.25C15.145 11.75 14.25 10.855 14.25 9.75V7C14.25 5.895 15.145 5 16.25 5H19C20.105 5 21 5.895 21 7V9.75C21 10.855 20.105 11.75 19 11.75Z" stroke="#0047BB" stroke-width="1.5" stroke-linecap="round" stroke-linejoin="round"/>
<path opacity="0.6" fill-rule="evenodd" clip-rule="evenodd" d="M7.75 23H5C3.895 23 3 22.105 3 21V18.25C3 17.145 3.895 16.25 5 16.25H7.75C8.855 16.25 9.75 17.145 9.75 18.25V21C9.75 22.105 8.855 23 7.75 23Z" stroke="#0047BB" stroke-width="1.5" stroke-linecap="round" stroke-linejoin="round"/>
<path opacity="0.6" fill-rule="evenodd" clip-rule="evenodd" d="M19 23H16.25C15.145 23 14.25 22.105 14.25 21V18.25C14.25 17.145 15.145 16.25 16.25 16.25H19C20.105 16.25 21 17.145 21 18.25V21C21 22.105 20.105 23 19 23Z" stroke="#0047BB" stroke-width="1.5" stroke-linecap="round" stroke-linejoin="round"/>
</svg>
