<svg width="46" height="46" viewBox="0 0 46 46" fill="none" xmlns="http://www.w3.org/2000/svg">
<path d="M22.9999 38.0926C31.3355 38.0926 38.0929 31.3353 38.0929 22.9997C38.0929 14.6641 31.3355 7.90674 22.9999 7.90674C14.6643 7.90674 7.90698 14.6641 7.90698 22.9997C7.90698 31.3353 14.6643 38.0926 22.9999 38.0926Z" fill="#CFF09E"/>
<path d="M23 0C22.3114 0 21.7532 0.558199 21.7532 1.24676C21.7532 1.93532 22.3114 2.49343 23 2.49343C28.206 2.49343 32.9641 4.44448 36.5843 7.65244L33.6391 10.5976C30.6788 8.05 26.9467 6.6603 23 6.6603C18.943 6.6603 15.227 8.14712 12.367 10.6037L8.53911 6.77602C8.53237 6.76928 8.52491 6.76353 8.518 6.75697C8.51162 6.75023 8.50614 6.74313 8.49958 6.73648C8.01289 6.24962 7.22326 6.24962 6.73648 6.73648C2.39236 11.0806 0 16.8565 0 23C0 35.6823 10.3177 46 23 46C29.1435 46 34.9193 43.6076 39.2635 39.2635C43.6076 34.9194 46 29.1435 46 23C46 10.3177 35.6823 0 23 0ZM32.7968 13.2154C33.2834 13.7026 34.0729 13.7031 34.5599 13.2164C34.596 13.1803 34.6287 13.142 34.6596 13.1028C34.6622 13.1002 34.665 13.0981 34.6676 13.0954L38.3474 9.41572C41.2973 12.7448 43.183 17.0363 43.4673 21.7532H42.0802C41.3916 21.7532 40.8334 22.3114 40.8334 23C40.8334 23.6886 41.3916 24.2468 42.0802 24.2468H43.4677C43.1939 28.8417 41.4099 33.1487 38.3545 36.5916L35.396 33.6331C37.8527 30.7732 39.3394 27.0572 39.3394 23.0001C39.3394 22.3115 38.7812 21.7533 38.0927 21.7533C37.4041 21.7533 36.8459 22.3115 36.8459 23.0001C36.8459 30.6348 30.6346 36.8464 22.9996 36.8464C15.3647 36.8464 9.15355 30.6348 9.15355 23C9.15355 15.3652 15.3649 9.15373 22.9998 9.15373C26.7017 9.15373 30.1809 10.5963 32.7968 13.2154ZM23 40.7135C22.3114 40.7135 21.7532 41.2717 21.7532 41.9603V43.4676C17.0363 43.1832 12.7447 41.2975 9.41572 38.3476L12.367 35.3964C15.227 37.8531 18.9429 39.3398 23 39.3398C27.0571 39.3398 30.773 37.853 33.633 35.3964L36.5915 38.3548C33.1487 41.4103 28.8416 43.1944 24.2467 43.468V41.9603C24.2468 41.2716 23.6886 40.7135 23 40.7135ZM2.53252 24.2468H6.70755C6.97807 27.8163 8.40111 31.0688 10.6038 33.633L7.65244 36.5843C4.7026 33.2553 2.81687 28.9637 2.53252 24.2468ZM7.64534 9.40844L10.6038 12.3669C8.40111 14.9312 6.97816 18.1837 6.70755 21.7531H2.53198C2.80573 17.1583 4.58985 12.8513 7.64534 9.40844Z" fill="#507C5C"/>
<path d="M28.4847 22.008V18.589C29.3289 18.7782 29.7804 19.2564 29.8265 20.0117C29.8358 20.1622 29.9501 20.28 30.0868 20.28H31.4523C31.5195 20.28 31.5832 20.252 31.6318 20.2011C31.6877 20.1426 31.7176 20.0602 31.7135 19.9751C31.625 18.0294 30.4491 16.7447 28.4847 16.4433V15.3035C28.4847 15.1449 28.3677 15.0159 28.2236 15.0159H26.8583C26.7143 15.0159 26.5972 15.1449 26.5972 15.3035V16.4433C24.5407 16.7585 23.3629 18.1315 23.3629 20.2176C23.3629 22.3038 24.5407 23.6768 26.5972 23.9919V27.4108C25.753 27.2217 25.3016 26.7434 25.2554 25.9881C25.2461 25.8376 25.1318 25.7199 24.9951 25.7199H23.6297C23.5625 25.7199 23.4988 25.7479 23.4502 25.7987C23.3944 25.8572 23.3644 25.9396 23.3685 26.0248C23.457 27.9704 24.6329 29.255 26.5973 29.5565V30.6964C26.5973 30.855 26.7144 30.984 26.8584 30.984H28.2236C28.3677 30.984 28.4848 30.855 28.4848 30.6964V29.5565C30.5413 29.2414 31.7191 27.8684 31.7191 25.7822C31.719 23.696 30.5413 22.3231 28.4847 22.008ZM29.8315 25.7824C29.8315 26.1483 29.8316 27.1094 28.4847 27.411V24.1538C29.8316 24.4555 29.8315 25.4165 29.8315 25.7824ZM25.2504 20.2176C25.2504 19.8517 25.2504 18.8907 26.5972 18.589V21.8462C25.2504 21.5445 25.2504 20.5836 25.2504 20.2176Z" fill="#507C5C"/>
<path d="M19.3448 21.9996L17.5892 21.8619C16.168 21.5795 16.168 20.5901 16.168 20.2176C16.168 19.8622 16.168 19.0297 17.236 18.6668C17.416 18.6056 17.6158 18.5745 17.83 18.5745H19.1138C19.3125 18.5745 19.5083 18.6079 19.6994 18.6745L19.7222 18.6819C20.3606 18.9125 20.7043 19.3599 20.7443 20.0118C20.7535 20.1623 20.8678 20.28 21.0046 20.28H22.37C22.4372 20.28 22.5009 20.252 22.5494 20.2012C22.6053 20.1427 22.6352 20.0604 22.6312 19.9751C22.5581 18.3681 21.74 17.197 20.3279 16.6777C19.8898 16.5166 19.4019 16.4348 18.8775 16.4348H18.0449C17.4848 16.4348 16.9641 16.5283 16.4972 16.7127C15.0676 17.2774 14.2802 18.5222 14.2802 20.2178C14.2802 22.322 15.4785 23.7007 17.572 24.0005L19.3276 24.1381C20.7489 24.4206 20.7489 25.41 20.7489 25.7824C20.7489 26.1016 20.7489 26.8489 19.8996 27.2458C19.6445 27.3651 19.3538 27.4256 19.0356 27.4256H17.88C17.5671 27.4256 17.2811 27.3671 17.0296 27.2516C16.4974 27.0074 16.209 26.5824 16.1726 25.9883C16.1633 25.8379 16.0491 25.7201 15.9123 25.7201H14.5469C14.4797 25.7201 14.416 25.7481 14.3674 25.799C14.3115 25.8574 14.2816 25.9398 14.2856 26.025C14.3586 27.632 15.1768 28.803 16.5889 29.3224C17.0267 29.4835 17.5148 29.5652 18.0393 29.5653H18.8719C19.432 29.5653 19.9527 29.4718 20.4196 29.2874C21.8492 28.7227 22.6366 27.4779 22.6366 25.7823C22.6366 23.6779 21.4383 22.2995 19.3448 21.9996Z" fill="#507C5C"/>
</svg>
