<svg width="45" height="45" viewBox="0 0 45 45" fill="none" xmlns="http://www.w3.org/2000/svg">
<g clip-path="url(#clip0)">
<path d="M45.0901 22.5C45.0901 34.92 35.0101 45 22.5901 45C10.1701 45 0.0900879 34.92 0.0900879 22.5C0.0900879 10.08 10.1701 0 22.5901 0C35.0101 0 45.0901 10.08 45.0901 22.5Z" fill="#FF9900"/>
<path d="M24.8729 16.4356C19.4237 16.6113 14.2382 18.1055 14.2382 23.5547C14.2382 27.334 16.5233 29.1797 19.5995 29.1797C22.3241 29.1797 24.0819 28.125 25.576 26.543C26.2792 27.5098 26.455 27.9492 27.6854 28.916C27.9491 29.0918 28.3885 29.0918 28.5643 28.8281L31.2889 26.4551C31.6405 26.1914 31.4647 25.752 31.2889 25.5762C30.6737 24.6094 29.9706 23.9063 29.9706 22.1484V16.5234C29.9706 14.1504 30.1464 11.9531 28.3885 10.3711C26.8944 8.96485 25.0487 8.61329 22.9393 8.5254C18.2811 8.43751 15.2049 10.9863 14.7655 13.9746C14.6776 14.502 15.1171 14.7656 15.3807 14.7656L18.6327 15.2051C19.16 15.293 19.4237 14.8535 19.5116 14.502C20.0389 12.5684 22.0604 12.041 23.2909 12.4805C25.0487 13.0078 24.8729 15.0293 24.8729 16.4356ZM21.7089 25.6641C20.3905 25.6641 19.5116 24.5215 19.5116 23.0274C19.5995 19.8633 22.0604 19.3359 24.8729 19.3359V20.918C24.8729 23.7305 23.3788 25.6641 21.7089 25.6641ZM36.4745 34.9805C37.6171 34.0137 38.7596 31.6406 38.6717 29.9707C38.6717 29.3555 38.5839 29.2676 37.9686 29.0918C36.826 28.7402 33.9257 28.6524 32.5194 29.9707C32.2557 30.2344 32.3436 30.4102 32.6073 30.4102C33.5741 30.2344 36.5624 29.8828 37.0018 30.5859C37.3534 31.2012 36.2987 33.6621 35.9471 34.7168C35.7714 35.1563 36.1229 35.2442 36.4745 34.9805ZM5.09753 30.0586C13.535 38.0567 26.8065 38.3203 35.4198 32.2559C36.035 31.9043 35.4198 31.2012 34.8925 31.4649C30.1771 33.4589 25.063 34.3301 19.9534 34.0098C14.8438 33.6895 9.87848 32.1865 5.44909 29.6192C5.09753 29.3555 4.74596 29.7949 5.09753 30.0586Z" fill="white"/>
</g>
<defs>
<clipPath id="clip0">
<path d="M0 22.5C0 10.0736 10.0736 0 22.5 0C34.9264 0 45 10.0736 45 22.5C45 34.9264 34.9264 45 22.5 45C10.0736 45 0 34.9264 0 22.5Z" fill="white"/>
</clipPath>
</defs>
</svg>
