<svg width="45" height="45" viewBox="0 0 45 45" fill="none" xmlns="http://www.w3.org/2000/svg">
<g clip-path="url(#clip0)">
<path d="M0 22.5C0 10.0736 10.0736 0 22.5 0C34.9264 0 45 10.0736 45 22.5C45 34.9264 34.9264 45 22.5 45C10.0736 45 0 34.9264 0 22.5Z" fill="#A9ADB1"/>
<path d="M45.0901 22.5C45.0901 34.92 35.0101 45 22.5901 45C10.1701 45 0.0900879 34.92 0.0900879 22.5C0.0900879 10.08 10.1701 0 22.5901 0C35.0101 0 45.0901 10.08 45.0901 22.5Z" fill="#A9ADB1"/>
<path d="M27.6016 15.3422C25.4784 15.1822 23.6771 16.5492 22.6721 16.5492C21.6524 16.5492 20.0804 15.3766 18.4135 15.4086C16.2247 15.4413 14.2074 16.705 13.0789 18.6996C10.8055 22.7159 12.4985 28.6674 14.7128 31.9265C15.7961 33.519 17.0879 35.3136 18.7848 35.2483C20.4181 35.1828 21.0359 34.1731 23.0102 34.1731C24.9833 34.1731 25.5399 35.2483 27.2672 35.2161C29.0251 35.1828 30.1389 33.5906 31.2141 31.9892C32.4584 30.1408 32.9696 28.3511 33 28.2564C32.9611 28.2414 29.5731 26.9185 29.5394 22.9455C29.5087 19.6238 32.203 18.0272 32.3256 17.9504C30.7962 15.6577 28.4338 15.4049 27.6016 15.3422ZM26.2915 13.1906C27.1933 12.0814 27.8 10.5366 27.633 9C26.335 9.05244 24.7654 9.87992 23.8345 10.9885C23.0009 11.9705 22.2687 13.5433 22.4676 15.0485C23.9142 15.1622 25.3906 14.3006 26.2915 13.1906Z" fill="white"/>
</g>
<defs>
<clipPath id="clip0">
<path d="M0 22.5C0 10.0736 10.0736 0 22.5 0C34.9264 0 45 10.0736 45 22.5C45 34.9264 34.9264 45 22.5 45C10.0736 45 0 34.9264 0 22.5Z" fill="white"/>
</clipPath>
</defs>
</svg>
