<svg width="45" height="45" viewBox="0 0 45 45" fill="none" xmlns="http://www.w3.org/2000/svg">
<g clip-path="url(#clip0)">
<path d="M45.0901 22.5C45.0901 34.92 35.0101 45 22.5901 45C10.1701 45 0.0900879 34.92 0.0900879 22.5C0.0900879 10.08 10.1701 0 22.5901 0C35.0101 0 45.0901 10.08 45.0901 22.5Z" fill="white"/>
<path d="M24.8099 9.71991C23.3195 9.47994 21.8003 9.47994 20.3099 9.71991C20.1904 9.71991 20.1299 9.66014 20.2501 9.53991L22.5901 7.73991L24.9301 9.53991C24.9899 9.65944 24.9301 9.71991 24.8106 9.71991H24.8099ZM20.9715 20.8799C20.9118 20.8799 20.852 20.9397 20.852 20.9994C21.3322 21.3594 21.6325 22.1997 22.652 22.1997C23.6715 22.1997 23.9718 21.3594 24.452 20.9994C24.452 20.9397 24.3922 20.8799 24.3325 20.8799C23.2196 21.06 22.0851 21.06 20.9722 20.8799H20.9715ZM22.5922 19.4997C22.292 19.4997 22.2322 19.3801 22.0522 19.3801C21.8132 19.3801 21.6325 19.4997 21.4525 19.6804C21.4525 19.7401 21.5122 19.7999 21.5122 19.8604C21.932 19.9201 22.112 20.1606 22.5318 20.1606C22.9515 20.1606 23.1927 19.9216 23.5513 19.8604C23.6111 19.8006 23.6111 19.7408 23.6111 19.6804C23.4311 19.5004 23.2511 19.4413 23.0113 19.3801C22.9515 19.3801 22.8918 19.4997 22.5915 19.4997H22.5922ZM45.0318 23.7606C45.0318 24.3006 44.972 24.8406 44.9122 25.3806C42.3922 25.8004 41.4318 23.5208 38.8513 23.6404C39.0313 24.1804 39.1515 24.7794 39.2113 25.3208C41.3713 25.3208 42.2115 27.3008 44.6113 27.0611C44.4918 27.6608 44.3111 28.2613 44.1311 28.8611C42.2115 29.0411 41.5506 27.1806 39.392 27.2411V28.7408C41.2518 28.7408 41.8529 30.4213 43.6529 30.3608L42.9329 32.1609C41.6729 32.1011 41.1927 30.4804 39.2732 30.5999L39.0341 31.8599C40.7146 31.7404 41.0732 33.2999 42.2741 33.4208C41.9739 33.9608 41.6132 34.5599 41.2546 35.0408C40.5346 34.6808 39.9348 33.4799 38.5546 33.4208L38.9146 32.1011C37.5343 32.0413 36.2146 31.5013 35.195 30.5401C35.555 28.3801 32.256 26.2201 32.256 24.6599C32.256 22.9794 33.0962 22.0197 33.0962 19.7401C33.0364 17.9401 32.3157 16.1999 31.0571 14.9399C30.8181 14.7008 30.5769 14.5201 30.2767 14.3401C31.5367 15.7204 32.2567 17.4599 32.3157 19.3204C32.3157 21.4804 31.2962 22.6201 31.2962 24.6008C31.2962 26.5816 34.1762 28.3204 34.1762 30.3608C34.1762 31.1413 33.9371 31.9808 33.0962 33.4806C34.1762 34.6197 35.6162 35.3404 37.1764 35.5197C37.4767 35.5794 37.7164 35.4001 37.8374 35.0999C37.9569 34.8608 38.0764 34.6197 38.1376 34.3799C39.3379 34.4397 39.8778 35.519 40.5374 35.9408L39.3983 37.3211C38.9786 36.8408 38.3788 36.0013 37.4788 35.7601C37.2988 36.0604 37.1786 36.3599 36.9986 36.6601C37.7186 36.8401 38.2586 37.6199 38.6186 38.1001L37.2988 39.3601C36.9986 38.8201 36.5788 38.4004 36.0388 38.0404C35.8588 38.2794 35.6788 38.5206 35.439 38.7604C35.8588 39.1204 36.2195 39.5408 36.4586 40.0204L34.7781 41.2206C34.4779 38.9404 31.3581 37.3815 32.1976 34.7406C31.8376 35.2806 31.6576 35.8797 31.5979 36.4808C31.5979 38.4004 33.6369 39.9008 33.8176 41.8211L32.4901 42.539C32.4304 40.4387 30.2703 38.1585 30.2703 36.419C30.2703 34.4994 32.7903 32.5799 32.7903 30.299C32.7903 28.018 29.9104 26.4599 29.9104 24.4792C29.9104 22.4985 31.1704 21.3594 31.1704 18.779C31.1704 16.8594 30.3301 15.0594 28.8901 13.7987L28.1096 13.2587C29.4294 14.8197 30.1487 16.1978 30.1487 18.3585C30.1487 20.7583 28.7685 22.078 28.7685 24.4194C28.7685 26.7608 31.588 28.0792 31.588 30.2392C31.588 32.3992 28.9478 34.259 28.9478 36.5392C28.9478 38.5783 31.2878 40.6194 31.2878 43.0783C30.7781 43.3042 30.2573 43.5044 29.7275 43.678C30.0278 41.2171 27.3875 38.6978 27.3875 36.7171C27.3875 34.4973 30.1473 32.6369 30.1473 30.2976C30.1473 27.9583 27.3278 26.8171 27.3278 24.4173C27.3278 22.0176 29.068 20.6373 29.068 17.9978C29.068 16.0178 28.1082 14.0976 26.548 12.898L26.4285 12.8383C26.3089 12.7187 26.1894 12.8383 26.2485 12.9578C27.3285 14.2776 27.9289 15.958 27.8685 17.6378C27.8685 20.0987 25.8885 22.078 25.8885 24.418C25.8885 27.2376 28.5287 28.018 28.5287 30.2983C28.5287 32.5785 25.7092 34.4383 25.7092 36.8985C25.7092 39.1787 28.4092 41.6376 27.9289 44.2785L26.3089 44.6385C26.7892 41.3985 24.1489 39.0585 24.1489 36.9583C24.1489 34.678 27.088 32.6383 27.088 30.358C27.088 28.2578 24.9878 27.5385 24.6882 25.3778C24.6882 25.0776 24.4492 24.8976 24.1482 24.8976H24.0885C23.4825 25.0807 22.8593 25.2013 22.2287 25.2576C21.6289 25.1978 20.9687 25.0776 20.3689 24.8976C20.0687 24.8378 19.8289 25.0171 19.7692 25.3173V25.3771C19.4689 27.5371 17.3694 28.2571 17.3694 30.3573C17.3694 32.6376 20.3085 34.6773 20.3085 36.9576C20.3085 39.0578 17.6682 41.3978 18.1485 44.6378L16.5285 44.2778C16.1087 41.6973 18.8087 39.178 18.8087 36.8978C18.8087 34.4369 15.9892 32.6369 15.9892 30.2976C15.9892 27.9583 18.6294 27.1778 18.6294 24.4173C18.6294 22.0176 16.6494 20.0369 16.6494 17.6371C16.5896 15.9566 17.1894 14.2762 18.2694 12.9571C18.3889 12.8376 18.2694 12.718 18.0894 12.8376L17.9699 12.8973C16.4089 14.0976 15.4499 16.0171 15.4499 17.9971C15.4499 20.6971 17.1901 22.0169 17.1901 24.4166C17.1901 26.8164 14.3706 27.9569 14.3706 30.2969C14.3706 32.6369 17.1304 34.5578 17.1304 36.7164C17.1304 38.6964 14.4901 41.2762 14.7904 43.6773C14.2606 43.5037 13.7398 43.3035 13.2301 43.0776C13.2899 40.6778 15.6299 38.6373 15.6299 36.5385C15.6299 34.2583 12.9896 32.4583 12.9896 30.2385C12.9896 28.0187 16.1699 26.8185 16.1699 24.4785C16.1699 22.1385 14.7896 20.8187 14.7896 18.4176C14.7896 16.2576 15.5096 14.8773 16.8287 13.3178C16.5285 13.4373 16.2887 13.618 16.0482 13.8578C14.6082 15.1178 13.8285 16.9178 13.768 18.838C13.768 21.358 15.028 22.5576 15.028 24.5383C15.028 26.519 12.148 28.1383 12.148 30.358C12.148 32.5778 14.668 34.5578 14.668 36.478C14.668 38.2183 12.508 40.4978 12.4482 42.598C12.0285 42.359 11.5482 42.1178 11.1285 41.878C11.3085 39.9585 13.3482 38.458 13.3482 36.5378C13.2885 35.938 13.1092 35.2778 12.7485 34.7976C13.5887 37.4378 10.4682 38.9973 10.168 41.2776C9.62801 40.9176 9.02895 40.4971 8.48754 40.0773C8.7266 39.5971 9.08731 39.1773 9.50707 38.8173C9.32707 38.5783 9.08731 38.3371 8.9073 38.0973C8.42707 38.4573 8.00731 38.8778 7.64731 39.4171C7.16707 38.9973 6.7473 38.5769 6.32754 38.1571C6.7473 37.6769 7.22754 36.8971 7.94754 36.7171C7.76754 36.4169 7.58754 36.1173 7.4673 35.8171C6.62707 36.0562 6.0273 36.8366 5.54777 37.378C5.12801 36.8978 4.7673 36.478 4.40871 35.9978C5.06965 35.578 5.60895 34.498 6.80848 34.4369C6.92801 34.6759 6.98848 34.9171 7.10871 35.1569C7.22824 35.4571 7.46871 35.5766 7.76965 35.5766C9.33059 35.3966 10.7699 34.6766 11.8499 33.5966C11.0096 32.0357 10.7699 31.2566 10.7699 30.4769C10.7699 28.4378 13.6499 26.6969 13.6499 24.7169C13.6499 22.7369 12.6304 21.5971 12.6304 19.4364C12.6897 17.5674 13.4129 15.7806 14.6701 14.3964C14.3699 14.5764 14.1301 14.7564 13.8896 14.9962C12.6296 16.2562 11.9096 17.9964 11.8506 19.7964C11.8506 22.0766 12.6908 23.0364 12.6908 24.7162C12.6908 26.2771 9.39106 28.4357 9.75176 30.5964C8.73223 31.5562 7.41176 32.0962 6.03223 32.0962L6.39223 33.4159C5.01199 33.4757 4.41223 34.6759 3.69223 35.0359C3.33223 34.4959 3.03129 33.9559 2.6727 33.4159C3.87293 33.2964 4.23363 31.7355 5.9127 31.855C5.85293 31.4352 5.79316 31.0148 5.67363 30.595C3.7541 30.4755 3.27387 32.0948 2.01387 32.1559C1.71363 31.5562 1.47387 30.9557 1.29387 30.3559C3.09387 30.4157 3.69363 28.7359 5.5548 28.7359V27.239C3.33504 27.1792 2.6748 29.039 0.815742 28.859C0.635742 28.2592 0.515508 27.6587 0.335508 27.059C2.73527 27.3592 3.57551 25.3187 5.73551 25.3187L6.09551 23.6383C3.51504 23.5187 2.55527 25.7983 0.0345703 25.3785C-0.0251953 24.8385 -0.0849609 24.2985 -0.0849609 23.7585C2.8541 24.0587 3.99527 21.6583 6.69527 21.9585C6.93434 21.2976 7.29504 20.6985 7.59527 20.0987C4.23434 19.499 3.09527 22.3185 -0.0849609 21.8987C0.270117 9.48014 10.5892 -0.300323 23.0099 0.0596766C34.9489 0.419677 44.5501 9.95968 44.8489 21.8987C41.7292 22.3185 40.5289 19.499 37.1687 20.0987C37.5287 20.6985 37.7685 21.299 38.0687 21.9585C40.9487 21.5985 42.0885 24.0587 45.0297 23.7585L45.0318 23.7606ZM12.9306 14.2804C11.1306 13.5604 9.15059 13.8001 7.53059 14.8801C7.29152 13.3192 6.45059 11.9411 5.19059 11.0411C5.14596 11.0119 5.09379 10.9963 5.04047 10.9963C4.98714 10.9963 4.93498 11.0119 4.89035 11.0411C4.83059 11.1008 4.83059 11.1606 4.83059 11.2211C5.06965 14.582 3.15012 17.5211 0.690586 20.1016C3.21059 20.8216 5.31012 17.6406 8.55152 18.7818C9.69059 16.9818 11.1918 15.482 12.932 14.2818L12.9306 14.2804ZM22.5929 12.2427C20.4927 12.2427 18.7539 13.443 18.2729 14.9427C18.2132 15.0623 18.2729 15.1227 18.3925 15.0623C18.8122 14.8823 19.2327 14.8232 19.6525 14.8232C20.4329 14.7634 21.1522 15.1234 21.6915 15.6634C21.8715 16.3834 21.8715 17.1034 21.6915 17.7637C21.3315 17.7039 21.2113 17.4037 20.8513 17.4037C20.4913 17.4037 20.2515 17.6427 19.6511 17.6427C19.0506 17.6427 18.9901 17.3425 18.6315 17.3425C18.2729 17.3425 18.0915 17.8227 18.0915 18.3023C18.0915 20.6423 20.2515 23.8218 22.472 23.8218C24.6925 23.8218 26.8525 20.6416 26.8525 18.3023C26.8525 17.7623 26.7329 17.3425 26.2527 17.2827C25.9525 17.5218 25.6529 17.6427 25.2929 17.583C24.6932 17.583 24.5729 17.3439 24.2129 17.3439C23.8529 17.3439 23.8529 18.2439 23.3727 18.2439C23.0725 17.4037 23.0127 16.4439 23.3129 15.5439C23.8529 14.9441 24.5729 14.6439 25.352 14.7037C25.7718 14.7037 26.1922 14.7634 26.612 14.9427C26.7315 15.0025 26.792 14.9427 26.7315 14.8232C26.3715 13.443 24.6313 12.2427 22.5915 12.2427H22.5929ZM25.8315 15.6037C25.2915 15.6037 24.7515 15.7837 24.3915 16.1437C24.3318 16.2632 24.3318 16.3827 24.3915 16.5634C25.2915 16.2632 26.072 16.2632 26.4918 16.683C26.6718 16.5634 26.7308 16.323 26.7308 16.143C26.7308 15.783 26.4306 15.603 25.8308 15.603L25.8315 15.6037ZM18.5696 16.6801C18.9894 16.2604 19.9499 16.2604 20.9096 16.6204C20.9694 16.1401 20.1292 15.6008 19.2292 15.6008C18.6294 15.6008 18.3292 15.7808 18.3292 16.0811C18.3292 16.3201 18.3889 16.5613 18.5682 16.6808L18.5696 16.6801ZM32.9696 8.76085C31.4087 8.88038 29.9694 9.42179 28.7699 10.3808C29.2501 9.06108 29.9089 7.74061 30.6894 6.60085C28.7699 6.72038 26.9699 7.56061 25.5285 8.88108L24.5687 6.30061L26.7892 4.31991L23.7889 4.08085L22.5887 1.32108L21.3885 4.08085L18.3882 4.31991L20.608 6.29991L19.5885 8.94015C18.2082 7.55991 16.4082 6.78015 14.4275 6.65991C15.208 7.86015 15.8675 9.12085 16.3471 10.4399C15.1468 9.48015 13.6471 8.87897 12.0861 8.81991C13.1057 10.0799 13.9459 11.4601 14.6061 12.9001C14.6659 13.0197 14.8452 13.1392 14.9661 13.0801H15.0259C17.3575 11.9258 19.9241 11.3252 22.5258 11.3252C25.1275 11.3252 27.6941 11.9258 30.0257 13.0801C30.1452 13.1399 30.3259 13.1399 30.3857 13.0204V12.9606C31.1057 11.3997 31.9466 10.0216 32.9661 8.76085H32.9696ZM36.5661 18.7206C39.8061 17.5816 41.9064 20.8208 44.4271 20.0404C42.0273 17.4599 40.0466 14.5806 40.2871 11.1599C40.2871 11.0404 40.2273 10.9208 40.1071 10.9208C40.0473 10.9208 39.9875 10.9208 39.9271 10.9806C38.6671 11.8806 37.8268 13.3206 37.5871 14.8197C35.9671 13.7397 33.9871 13.4999 32.1871 14.2199C33.9273 15.4799 35.4271 16.9797 36.5675 18.7199" fill="#006241"/>
</g>
<defs>
<clipPath id="clip0">
<path d="M0 22.5C0 10.0736 10.0736 0 22.5 0C34.9264 0 45 10.0736 45 22.5C45 34.9264 34.9264 45 22.5 45C10.0736 45 0 34.9264 0 22.5Z" fill="white"/>
</clipPath>
</defs>
</svg>
