<svg width="45" height="45" viewBox="0 0 45 45" fill="none" xmlns="http://www.w3.org/2000/svg">
<path d="M22.5001 45C34.9265 45 45.0001 34.9264 45.0001 22.5C45.0001 10.0736 34.9265 0 22.5001 0C10.0737 0 6.10352e-05 10.0736 6.10352e-05 22.5C6.10352e-05 34.9264 10.0737 45 22.5001 45Z" fill="#2DAAE1"/>
<path d="M36.9266 13.5498C35.8653 14.0207 34.7254 14.3391 33.5269 14.4822C34.7501 13.7497 35.6871 12.5891 36.1296 11.2077C34.9676 11.8978 33.696 12.3836 32.37 12.6441C31.2908 11.4938 29.7519 10.7756 28.0494 10.7756C24.7815 10.7756 22.1313 13.4248 22.1313 16.6946C22.1313 17.1579 22.1834 17.6099 22.2838 18.0438C17.3644 17.7966 13.0031 15.4402 10.0838 11.8596C9.57406 12.7341 9.28228 13.7508 9.28228 14.8356C9.28228 16.8889 10.3274 18.7005 11.9154 19.7617C10.9753 19.7325 10.0559 19.4788 9.23392 19.0217V19.0964C9.23392 21.9645 11.2739 24.356 13.9818 24.8999C13.4844 25.0362 12.9623 25.1074 12.4223 25.1074C12.0404 25.1074 11.67 25.0712 11.308 25.0032C12.0613 27.3539 14.2473 29.0651 16.8366 29.1134C14.8109 30.7014 12.2583 31.648 9.48597 31.648C9.00846 31.648 8.53654 31.6195 8.07324 31.5637C10.6931 33.2435 13.8037 34.2242 17.1465 34.2242C28.0333 34.2242 33.9874 25.205 33.9874 17.3835C33.9874 17.1267 33.9817 16.8718 33.9693 16.6179C35.1294 15.7788 36.1307 14.7399 36.9266 13.5498Z" fill="white"/>
</svg>
